<svg fill="RGB(25, 37, 171)" xmlns="http://www.w3.org/2000/svg" viewBox="0 0 26 26" width="26px" height="26px"><path d="M 12.875 0 C 12.71875 0.015625 12.570313 0.0703125 12.4375 0.15625 L 0.4375 8.15625 C -0.0273438 8.46875 -0.15625 9.097656 0.15625 9.5625 C 0.46875 10.027344 1.097656 10.15625 1.5625 9.84375 L 13 2.21875 L 24.4375 9.84375 C 24.902344 10.15625 25.53125 10.027344 25.84375 9.5625 C 26.15625 9.097656 26.027344 8.46875 25.5625 8.15625 L 13.5625 0.15625 C 13.359375 0.0234375 13.117188 -0.03125 12.875 0 Z M 13 4.5 L 1 12 L 1 23 C 1 24.65625 2.34375 26 4 26 L 22 26 C 23.65625 26 25 24.65625 25 23 L 25 12 Z M 11 11 L 15 11 L 15 15 L 19 15 L 19 19 L 15 19 L 15 23 L 11 23 L 11 19 L 7 19 L 7 15 L 11 15 Z"/></svg>