<svg xmlns="http://www.w3.org/2000/svg" viewBox="0 0 50 50" width="50px" height="50px"><path d="M 36.90625 -0.0625 C 35.859375 -0.0625 34.828125 0.328125 34.03125 1.125 L 33.71875 1.4375 C 33.671875 1.476563 33.632813 1.515625 33.59375 1.5625 L 33.34375 1.84375 L 17.84375 17.3125 C 17.722656 17.433594 17.636719 17.585938 17.59375 17.75 L 15.96875 23.75 C 15.875 24.101563 15.976563 24.472656 16.234375 24.726563 C 16.496094 24.980469 16.871094 25.070313 17.21875 24.96875 L 23.1875 23.34375 C 23.363281 23.304688 23.527344 23.21875 23.65625 23.09375 L 39.125 7.625 C 39.125 7.625 39.261719 7.488281 39.375 7.375 C 39.421875 7.328125 39.464844 7.273438 39.5 7.21875 C 39.652344 7.066406 39.8125 6.90625 39.8125 6.90625 C 41.410156 5.308594 41.40625 2.71875 39.8125 1.125 C 39.015625 0.328125 37.953125 -0.0625 36.90625 -0.0625 Z M 34.75 3.25 L 37.6875 6.1875 L 22.375 21.53125 L 19.4375 18.625 L 19.46875 18.5 Z M 3 9 C 1.347656 9 0 10.347656 0 12 L 0 38 C 0 39.652344 1.347656 41 3 41 L 47 41 C 48.652344 41 50 39.652344 50 38 L 50 12 C 50 10.347656 48.652344 9 47 9 L 39.71875 9 L 37.71875 11 L 47 11 C 47.550781 11 48 11.449219 48 12 L 48 38 C 48 38.550781 47.550781 39 47 39 L 3 39 C 2.449219 39 2 38.550781 2 38 L 2 12 C 2 11.449219 2.449219 11 3 11 L 22.125 11 L 24.125 9 Z"/></svg>